<svg xmlns="http://www.w3.org/2000/svg" xmlns:xlink="http://www.w3.org/1999/xlink" width="163" zoomAndPan="magnify" viewBox="0 0 122.25 65.249999" height="87" preserveAspectRatio="xMidYMid meet" version="1.0"><defs><g/><clipPath id="id1"><path d="M 47.277344 1 L 68 1 L 68 35.734375 L 47.277344 35.734375 Z M 47.277344 1 " clip-rule="nonzero"/></clipPath><clipPath id="id2"><path d="M 47.277344 0.886719 L 73 0.886719 L 73 35.734375 L 47.277344 35.734375 Z M 47.277344 0.886719 " clip-rule="nonzero"/></clipPath><clipPath id="id3"><path d="M 47.277344 30 L 68 30 L 68 35.734375 L 47.277344 35.734375 Z M 47.277344 30 " clip-rule="nonzero"/></clipPath><clipPath id="id4"><path d="M 47.277344 24 L 73 24 L 73 35.734375 L 47.277344 35.734375 Z M 47.277344 24 " clip-rule="nonzero"/></clipPath><clipPath id="id5"><path d="M 47.277344 1 L 68 1 L 68 6 L 47.277344 6 Z M 47.277344 1 " clip-rule="nonzero"/></clipPath><clipPath id="id6"><path d="M 47.277344 0.886719 L 73 0.886719 L 73 12 L 47.277344 12 Z M 47.277344 0.886719 " clip-rule="nonzero"/></clipPath><clipPath id="id7"><path d="M 47.277344 26 L 68 26 L 68 35.734375 L 47.277344 35.734375 Z M 47.277344 26 " clip-rule="nonzero"/></clipPath><clipPath id="id8"><path d="M 47.277344 0.886719 L 70 0.886719 L 70 10 L 47.277344 10 Z M 47.277344 0.886719 " clip-rule="nonzero"/></clipPath><clipPath id="id9"><path d="M 47.277344 9 L 49 9 L 49 13 L 47.277344 13 Z M 47.277344 9 " clip-rule="nonzero"/></clipPath><clipPath id="id10"><path d="M 47.277344 8 L 49 8 L 49 10 L 47.277344 10 Z M 47.277344 8 " clip-rule="nonzero"/></clipPath><clipPath id="id11"><path d="M 47.277344 26 L 56 26 L 56 35.734375 L 47.277344 35.734375 Z M 47.277344 26 " clip-rule="nonzero"/></clipPath><clipPath id="id12"><path d="M 47.277344 28 L 56 28 L 56 35.734375 L 47.277344 35.734375 Z M 47.277344 28 " clip-rule="nonzero"/></clipPath><clipPath id="id13"><path d="M 59 0.886719 L 71 0.886719 L 71 9 L 59 9 Z M 59 0.886719 " clip-rule="nonzero"/></clipPath><clipPath id="id14"><path d="M 60 0.886719 L 71 0.886719 L 71 10 L 60 10 Z M 60 0.886719 " clip-rule="nonzero"/></clipPath><clipPath id="id15"><path d="M 59 9 L 73.96875 9 L 73.96875 25 L 59 25 Z M 59 9 " clip-rule="nonzero"/></clipPath><clipPath id="id16"><path d="M 56 6 L 73.96875 6 L 73.96875 28 L 56 28 Z M 56 6 " clip-rule="nonzero"/></clipPath><clipPath id="id17"><path d="M 114 40 L 121.183594 40 L 121.183594 59 L 114 59 Z M 114 40 " clip-rule="nonzero"/></clipPath></defs><g clip-path="url(#id1)"><path fill="#bac4e8" d="M 61.847656 35.550781 L 52.988281 35.550781 C 49.941406 35.550781 47.46875 33.035156 47.46875 29.929688 L 47.46875 6.691406 C 47.46875 3.585938 49.941406 1.070312 52.988281 1.070312 L 61.847656 1.070312 C 64.894531 1.070312 67.367188 3.585938 67.367188 6.691406 L 67.367188 29.929688 C 67.367188 33.035156 64.894531 35.550781 61.847656 35.550781 " fill-opacity="1" fill-rule="nonzero"/></g><g clip-path="url(#id2)"><path stroke-linecap="butt" transform="matrix(0.0119488, 0, 0, -0.0121681, 35.226233, 44.180745)" fill="none" stroke-linejoin="miter" d="M 2227.953006 709.228674 L 1486.509877 709.228674 C 1231.516208 709.228674 1024.579038 915.968058 1024.579038 1171.182048 L 1024.579038 3080.953153 C 1024.579038 3336.167143 1231.516208 3542.906526 1486.509877 3542.906526 L 2227.953006 3542.906526 C 2482.946674 3542.906526 2689.883844 3336.167143 2689.883844 3080.953153 L 2689.883844 1171.182048 C 2689.883844 915.968058 2482.946674 709.228674 2227.953006 709.228674 Z M 2227.953006 709.228674 " stroke="#51399c" stroke-width="30" stroke-opacity="1" stroke-miterlimit="10"/></g><g clip-path="url(#id3)"><path fill="#996dff" d="M 47.46875 30.042969 C 47.527344 33.09375 49.976562 35.550781 52.988281 35.550781 L 61.847656 35.550781 C 64.859375 35.550781 67.304688 33.09375 67.363281 30.042969 L 47.46875 30.042969 " fill-opacity="1" fill-rule="nonzero"/></g><g clip-path="url(#id4)"><path stroke-linecap="butt" transform="matrix(0.0119488, 0, 0, -0.0121681, 35.226233, 44.180745)" fill="none" stroke-linejoin="miter" d="M 1024.579038 1161.872355 C 1029.482763 910.831675 1234.458442 709.228674 1486.509877 709.228674 L 2227.953006 709.228674 C 2480.00444 709.228674 2684.653205 910.831675 2689.556929 1161.872355 Z M 1024.579038 1161.872355 " stroke="#51399c" stroke-width="30" stroke-opacity="1" stroke-miterlimit="10"/></g><g clip-path="url(#id5)"><path fill="#996dff" d="M 67.320312 5.988281 C 66.984375 3.214844 64.660156 1.070312 61.847656 1.070312 L 52.988281 1.070312 C 50.171875 1.070312 47.851562 3.214844 47.511719 5.988281 L 67.320312 5.988281 " fill-opacity="1" fill-rule="nonzero"/></g><g clip-path="url(#id6)"><path stroke-linecap="butt" transform="matrix(0.0119488, 0, 0, -0.0121681, 35.226233, 44.180745)" fill="none" stroke-linejoin="miter" d="M 2685.960865 3138.737452 C 2657.846178 3366.343388 2463.331777 3542.906526 2227.953006 3542.906526 L 1486.509877 3542.906526 C 1250.80419 3542.906526 1056.616704 3366.343388 1028.175103 3138.737452 Z M 2685.960865 3138.737452 " stroke="#51399c" stroke-width="30" stroke-opacity="1" stroke-miterlimit="10"/></g><path fill="#ffffff" d="M 61.492188 34.214844 L 53.34375 34.214844 C 52.574219 34.214844 51.949219 33.578125 51.949219 32.796875 C 51.949219 32.015625 52.574219 31.382812 53.34375 31.382812 L 61.492188 31.382812 C 62.261719 31.382812 62.882812 32.015625 62.882812 32.796875 C 62.882812 33.578125 62.261719 34.214844 61.492188 34.214844 " fill-opacity="1" fill-rule="nonzero"/><g clip-path="url(#id7)"><path stroke-linecap="butt" transform="matrix(0.0119488, 0, 0, -0.0121681, 35.226233, 44.180745)" fill="none" stroke-linejoin="miter" d="M 2198.203744 819.018844 L 1516.259138 819.018844 C 1451.856891 819.018844 1399.550497 871.345737 1399.550497 935.550515 C 1399.550497 999.755292 1451.856891 1051.761162 1516.259138 1051.761162 L 2198.203744 1051.761162 C 2262.605991 1051.761162 2314.58547 999.755292 2314.58547 935.550515 C 2314.58547 871.345737 2262.605991 819.018844 2198.203744 819.018844 Z M 2198.203744 819.018844 " stroke="#51399c" stroke-width="30" stroke-opacity="1" stroke-miterlimit="10"/></g><path fill="#ffffff" d="M 63.457031 4.097656 L 51.378906 4.097656 C 51.070312 4.097656 50.820312 3.84375 50.820312 3.53125 C 50.820312 3.21875 51.070312 2.964844 51.378906 2.964844 L 63.457031 2.964844 C 63.761719 2.964844 64.011719 3.21875 64.011719 3.53125 C 64.011719 3.84375 63.761719 4.097656 63.457031 4.097656 " fill-opacity="1" fill-rule="nonzero"/><g clip-path="url(#id8)"><path stroke-linecap="butt" transform="matrix(0.0119488, 0, 0, -0.0121681, 35.226233, 44.180745)" fill="none" stroke-linejoin="miter" d="M 2362.641969 3294.113014 L 1351.820913 3294.113014 C 1325.994631 3294.113014 1305.072074 3314.979566 1305.072074 3340.661477 C 1305.072074 3366.343388 1325.994631 3387.209941 1351.820913 3387.209941 L 2362.641969 3387.209941 C 2388.141336 3387.209941 2409.063894 3366.343388 2409.063894 3340.661477 C 2409.063894 3314.979566 2388.141336 3294.113014 2362.641969 3294.113014 Z M 2362.641969 3294.113014 " stroke="#51399c" stroke-width="30" stroke-opacity="1" stroke-miterlimit="10"/></g><g clip-path="url(#id9)"><path stroke-linecap="round" transform="matrix(0.0119488, 0, 0, -0.0121681, 35.226233, 44.180745)" fill="none" stroke-linejoin="miter" d="M 1082.769901 2595.244011 L 1082.769901 2811.293087 " stroke="#51399c" stroke-width="30" stroke-opacity="1" stroke-miterlimit="10"/></g><g clip-path="url(#id10)"><path stroke-linecap="round" transform="matrix(0.0119488, 0, 0, -0.0121681, 35.226233, 44.180745)" fill="none" stroke-linejoin="miter" d="M 1081.789156 2857.199503 L 1081.789156 2896.685441 " stroke="#51399c" stroke-width="30" stroke-opacity="1" stroke-miterlimit="10"/></g><path stroke-linecap="round" transform="matrix(0.0119488, 0, 0, -0.0121681, 35.226233, 44.180745)" fill="none" stroke-linejoin="miter" d="M 2628.423832 1234.423754 L 2628.423832 1413.555083 " stroke="#51399c" stroke-width="30" stroke-opacity="1" stroke-miterlimit="10"/><path stroke-linecap="round" transform="matrix(0.0119488, 0, 0, -0.0121681, 35.226233, 44.180745)" fill="none" stroke-linejoin="miter" d="M 2628.423832 1463.634809 L 2628.423832 1500.87358 " stroke="#51399c" stroke-width="30" stroke-opacity="1" stroke-miterlimit="10"/><g clip-path="url(#id11)"><path stroke-linecap="round" transform="matrix(0.0119488, 0, 0, -0.0121681, 35.226233, 44.180745)" fill="none" stroke-linejoin="miter" d="M 1095.519585 1043.735565 C 1125.268846 969.258023 1173.325345 901.843007 1234.131528 849.195089 " stroke="#51399c" stroke-width="30" stroke-opacity="1" stroke-miterlimit="10"/></g><g clip-path="url(#id12)"><path stroke-linecap="round" transform="matrix(0.0119488, 0, 0, -0.0121681, 35.226233, 44.180745)" fill="none" stroke-linejoin="miter" d="M 1267.149938 823.834202 C 1274.015153 816.450653 1282.188027 810.351199 1291.341646 805.856864 " stroke="#51399c" stroke-width="30" stroke-opacity="1" stroke-miterlimit="10"/></g><g clip-path="url(#id13)"><path stroke-linecap="round" transform="matrix(0.0119488, 0, 0, -0.0121681, 35.226233, 44.180745)" fill="none" stroke-linejoin="miter" d="M 2436.52475 3435.0425 C 2475.754545 3406.792398 2510.080616 3371.158747 2536.560728 3330.709737 " stroke="#51399c" stroke-width="30" stroke-opacity="1" stroke-miterlimit="10"/></g><g clip-path="url(#id14)"><path stroke-linecap="round" transform="matrix(0.0119488, 0, 0, -0.0121681, 35.226233, 44.180745)" fill="none" stroke-linejoin="miter" d="M 2554.541051 3291.223799 C 2559.11786 3284.803321 2563.69467 3278.382843 2567.944564 3271.641342 " stroke="#51399c" stroke-width="30" stroke-opacity="1" stroke-miterlimit="10"/></g><g clip-path="url(#id15)"><path fill="#00875f" d="M 67.066406 9.777344 C 63.351562 9.777344 60.339844 12.84375 60.339844 16.628906 C 60.339844 18.34375 60.960938 19.914062 61.988281 21.113281 C 61.964844 21.160156 61.945312 21.203125 61.917969 21.246094 C 61.421875 22.164062 60.683594 22.957031 59.757812 23.410156 C 61.113281 24.433594 63.121094 24.570312 64.644531 23.835938 C 64.957031 23.683594 65.253906 23.5 65.53125 23.296875 C 66.023438 23.414062 66.535156 23.476562 67.066406 23.476562 C 70.78125 23.476562 73.792969 20.410156 73.792969 16.628906 C 73.792969 12.84375 70.78125 9.777344 67.066406 9.777344 " fill-opacity="1" fill-rule="nonzero"/><path stroke-linecap="butt" transform="matrix(0.0119488, 0, 0, -0.0121681, 35.226233, 44.180745)" fill="none" stroke-linejoin="round" d="M 2664.711392 2827.344282 C 2353.815265 2827.344282 2101.763831 2575.34053 2101.763831 2264.268384 C 2101.763831 2123.338897 2153.74331 1994.287295 2239.721944 1895.732961 C 2237.760455 1891.880675 2236.12588 1888.349412 2233.837475 1884.818149 C 2192.319275 1809.377536 2130.532348 1744.209686 2053.053502 1706.970916 C 2166.492993 1622.862657 2334.527283 1611.626821 2462.024117 1671.979312 C 2488.177314 1684.499243 2513.022851 1699.587366 2536.233813 1716.280608 C 2577.425098 1706.649892 2620.250958 1701.513509 2664.711392 1701.513509 C 2975.607519 1701.513509 3227.658953 1953.517261 3227.658953 2264.268384 C 3227.658953 2575.34053 2975.607519 2827.344282 2664.711392 2827.344282 Z M 2664.711392 2827.344282 " stroke="#51399c" stroke-width="30" stroke-opacity="1" stroke-miterlimit="10"/></g><path fill="#ffffff" d="M 72.335938 16.640625 C 72.335938 19.625 69.960938 22.046875 67.027344 22.046875 C 64.097656 22.046875 61.722656 19.625 61.722656 16.640625 C 61.722656 13.65625 64.097656 11.238281 67.027344 11.238281 C 69.960938 11.238281 72.335938 13.65625 72.335938 16.640625 " fill-opacity="1" fill-rule="nonzero"/><g clip-path="url(#id16)"><path stroke-linecap="butt" transform="matrix(0.0119488, 0, 0, -0.0121681, 35.226233, 44.180745)" fill="none" stroke-linejoin="miter" d="M 3105.719673 2263.305312 C 3105.719673 2018.043062 2906.955377 1819.008252 2661.442243 1819.008252 C 2416.256023 1819.008252 2217.491727 2018.043062 2217.491727 2263.305312 C 2217.491727 2508.567562 2416.256023 2707.281348 2661.442243 2707.281348 C 2906.955377 2707.281348 3105.719673 2508.567562 3105.719673 2263.305312 Z M 3105.719673 2263.305312 " stroke="#51399c" stroke-width="30" stroke-opacity="1" stroke-miterlimit="10"/></g><path stroke-linecap="round" transform="matrix(0.0119488, 0, 0, -0.0121681, 35.226233, 44.180745)" fill="none" stroke-linejoin="round" d="M 2313.604725 2155.441286 C 2276.009505 2284.492889 2312.950895 2432.484901 2407.102404 2528.471043 " stroke="#51399c" stroke-width="30" stroke-opacity="1" stroke-miterlimit="10"/><path stroke-linecap="round" transform="matrix(0.0119488, 0, 0, -0.0121681, 35.226233, 44.180745)" fill="none" stroke-linejoin="round" d="M 2459.735712 2572.130292 C 2472.485396 2580.476913 2485.235079 2589.144558 2497.984763 2597.491179 " stroke="#51399c" stroke-width="30" stroke-opacity="1" stroke-miterlimit="10"/><g fill="#996dff" fill-opacity="1"><g transform="translate(0.331219, 58.47581)"><g><path d="M 6.4375 -6.1875 L 6.4375 0 L 1.84375 0 L 1.84375 -17.015625 L 7.421875 -17.015625 C 12.046875 -17.015625 14.359375 -15.335938 14.359375 -11.984375 C 14.359375 -10.015625 13.394531 -8.492188 11.46875 -7.421875 L 16.421875 0 L 11.21875 0 L 7.609375 -6.1875 Z M 6.4375 -9.65625 L 7.296875 -9.65625 C 8.898438 -9.65625 9.703125 -10.363281 9.703125 -11.78125 C 9.703125 -12.957031 8.914062 -13.546875 7.34375 -13.546875 L 6.4375 -13.546875 Z M 6.4375 -9.65625 "/></g></g></g><g fill="#996dff" fill-opacity="1"><g transform="translate(16.466942, 58.47581)"><g><path d="M 7.9375 0.234375 C 5.738281 0.234375 4.03125 -0.347656 2.8125 -1.515625 C 1.601562 -2.679688 1 -4.347656 1 -6.515625 C 1 -8.734375 1.5625 -10.4375 2.6875 -11.625 C 3.8125 -12.820312 5.421875 -13.421875 7.515625 -13.421875 C 9.492188 -13.421875 11.023438 -12.898438 12.109375 -11.859375 C 13.191406 -10.828125 13.734375 -9.335938 13.734375 -7.390625 L 13.734375 -5.359375 L 5.59375 -5.359375 C 5.625 -4.628906 5.894531 -4.050781 6.40625 -3.625 C 6.914062 -3.207031 7.609375 -3 8.484375 -3 C 9.285156 -3 10.019531 -3.070312 10.6875 -3.21875 C 11.363281 -3.375 12.09375 -3.632812 12.875 -4 L 12.875 -0.734375 C 12.164062 -0.367188 11.429688 -0.117188 10.671875 0.015625 C 9.910156 0.160156 9 0.234375 7.9375 0.234375 Z M 7.671875 -10.328125 C 7.140625 -10.328125 6.691406 -10.15625 6.328125 -9.8125 C 5.960938 -9.476562 5.75 -8.953125 5.6875 -8.234375 L 9.609375 -8.234375 C 9.585938 -8.867188 9.40625 -9.375 9.0625 -9.75 C 8.71875 -10.132812 8.253906 -10.328125 7.671875 -10.328125 Z M 7.671875 -10.328125 "/></g></g></g><g fill="#996dff" fill-opacity="1"><g transform="translate(31.205632, 58.47581)"><g><path d="M 11.765625 -4.046875 C 11.765625 -2.640625 11.28125 -1.570312 10.3125 -0.84375 C 9.351562 -0.125 7.972656 0.234375 6.171875 0.234375 C 5.191406 0.234375 4.335938 0.179688 3.609375 0.078125 C 2.890625 -0.0234375 2.15625 -0.21875 1.40625 -0.5 L 1.40625 -4.140625 C 2.113281 -3.828125 2.890625 -3.570312 3.734375 -3.375 C 4.578125 -3.175781 5.328125 -3.078125 5.984375 -3.078125 C 6.972656 -3.078125 7.46875 -3.300781 7.46875 -3.75 C 7.46875 -3.976562 7.328125 -4.179688 7.046875 -4.359375 C 6.773438 -4.546875 5.972656 -4.90625 4.640625 -5.4375 C 3.429688 -5.9375 2.585938 -6.5 2.109375 -7.125 C 1.628906 -7.757812 1.390625 -8.5625 1.390625 -9.53125 C 1.390625 -10.757812 1.859375 -11.710938 2.796875 -12.390625 C 3.742188 -13.078125 5.085938 -13.421875 6.828125 -13.421875 C 7.691406 -13.421875 8.503906 -13.328125 9.265625 -13.140625 C 10.035156 -12.953125 10.832031 -12.675781 11.65625 -12.3125 L 10.421875 -9.375 C 9.816406 -9.644531 9.175781 -9.875 8.5 -10.0625 C 7.820312 -10.25 7.269531 -10.34375 6.84375 -10.34375 C 6.101562 -10.34375 5.734375 -10.160156 5.734375 -9.796875 C 5.734375 -9.578125 5.863281 -9.382812 6.125 -9.21875 C 6.382812 -9.0625 7.132812 -8.738281 8.375 -8.25 C 9.289062 -7.875 9.976562 -7.503906 10.4375 -7.140625 C 10.894531 -6.773438 11.226562 -6.34375 11.4375 -5.84375 C 11.65625 -5.351562 11.765625 -4.753906 11.765625 -4.046875 Z M 11.765625 -4.046875 "/></g></g></g><g fill="#996dff" fill-opacity="1"><g transform="translate(43.918625, 58.47581)"><g><path d="M 14.171875 -6.625 C 14.171875 -4.46875 13.585938 -2.785156 12.421875 -1.578125 C 11.265625 -0.367188 9.644531 0.234375 7.5625 0.234375 C 5.550781 0.234375 3.953125 -0.378906 2.765625 -1.609375 C 1.585938 -2.847656 1 -4.519531 1 -6.625 C 1 -8.769531 1.578125 -10.4375 2.734375 -11.625 C 3.898438 -12.820312 5.53125 -13.421875 7.625 -13.421875 C 8.914062 -13.421875 10.054688 -13.144531 11.046875 -12.59375 C 12.046875 -12.039062 12.816406 -11.25 13.359375 -10.21875 C 13.898438 -9.195312 14.171875 -8 14.171875 -6.625 Z M 5.625 -6.625 C 5.625 -5.488281 5.773438 -4.625 6.078125 -4.03125 C 6.378906 -3.4375 6.890625 -3.140625 7.609375 -3.140625 C 8.304688 -3.140625 8.800781 -3.4375 9.09375 -4.03125 C 9.382812 -4.625 9.53125 -5.488281 9.53125 -6.625 C 9.53125 -7.75 9.382812 -8.597656 9.09375 -9.171875 C 8.800781 -9.742188 8.296875 -10.03125 7.578125 -10.03125 C 6.878906 -10.03125 6.378906 -9.742188 6.078125 -9.171875 C 5.773438 -8.609375 5.625 -7.757812 5.625 -6.625 Z M 5.625 -6.625 "/></g></g></g><g fill="#996dff" fill-opacity="1"><g transform="translate(59.111351, 58.47581)"><g><path d="M 6.125 0 L 1.578125 0 L 1.578125 -18.109375 L 6.125 -18.109375 Z M 6.125 0 "/></g></g></g><g fill="#996dff" fill-opacity="1"><g transform="translate(66.818313, 58.47581)"><g><path d="M 5.03125 0 L 0 -13.1875 L 4.75 -13.1875 L 6.984375 -5.390625 C 6.992188 -5.347656 7.007812 -5.28125 7.03125 -5.1875 C 7.050781 -5.09375 7.070312 -4.984375 7.09375 -4.859375 C 7.125 -4.734375 7.144531 -4.597656 7.15625 -4.453125 C 7.175781 -4.304688 7.1875 -4.171875 7.1875 -4.046875 L 7.28125 -4.046875 C 7.28125 -4.453125 7.347656 -4.890625 7.484375 -5.359375 L 9.828125 -13.1875 L 14.5625 -13.1875 L 9.53125 0 Z M 5.03125 0 "/></g></g></g><g fill="#996dff" fill-opacity="1"><g transform="translate(81.382374, 58.47581)"><g><path d="M 7.9375 0.234375 C 5.738281 0.234375 4.03125 -0.347656 2.8125 -1.515625 C 1.601562 -2.679688 1 -4.347656 1 -6.515625 C 1 -8.734375 1.5625 -10.4375 2.6875 -11.625 C 3.8125 -12.820312 5.421875 -13.421875 7.515625 -13.421875 C 9.492188 -13.421875 11.023438 -12.898438 12.109375 -11.859375 C 13.191406 -10.828125 13.734375 -9.335938 13.734375 -7.390625 L 13.734375 -5.359375 L 5.59375 -5.359375 C 5.625 -4.628906 5.894531 -4.050781 6.40625 -3.625 C 6.914062 -3.207031 7.609375 -3 8.484375 -3 C 9.285156 -3 10.019531 -3.070312 10.6875 -3.21875 C 11.363281 -3.375 12.09375 -3.632812 12.875 -4 L 12.875 -0.734375 C 12.164062 -0.367188 11.429688 -0.117188 10.671875 0.015625 C 9.910156 0.160156 9 0.234375 7.9375 0.234375 Z M 7.671875 -10.328125 C 7.140625 -10.328125 6.691406 -10.15625 6.328125 -9.8125 C 5.960938 -9.476562 5.75 -8.953125 5.6875 -8.234375 L 9.609375 -8.234375 C 9.585938 -8.867188 9.40625 -9.375 9.0625 -9.75 C 8.71875 -10.132812 8.253906 -10.328125 7.671875 -10.328125 Z M 7.671875 -10.328125 "/></g></g></g><g fill="#00875f" fill-opacity="1"><g transform="translate(96.113798, 58.47581)"><g><path d="M 12.28125 0 L 11.4375 -3.1875 L 5.921875 -3.1875 L 5.046875 0 L 0 0 L 5.546875 -17.09375 L 11.6875 -17.09375 L 17.3125 0 Z M 10.484375 -6.96875 L 9.75 -9.75 C 9.582031 -10.375 9.375 -11.175781 9.125 -12.15625 C 8.882812 -13.144531 8.726562 -13.851562 8.65625 -14.28125 C 8.582031 -13.882812 8.441406 -13.234375 8.234375 -12.328125 C 8.023438 -11.421875 7.570312 -9.632812 6.875 -6.96875 Z M 10.484375 -6.96875 "/></g></g></g><g clip-path="url(#id17)"><g fill="#00875f" fill-opacity="1"><g transform="translate(113.425357, 58.47581)"><g><path d="M 6.140625 0 L 1.59375 0 L 1.59375 -13.1875 L 6.140625 -13.1875 Z M 1.078125 -14.453125 L 1.078125 -14.78125 C 2.265625 -16.0625 3.019531 -16.890625 3.34375 -17.265625 C 3.664062 -17.640625 3.929688 -17.972656 4.140625 -18.265625 L 9.125 -18.265625 L 9.125 -18.015625 C 8.507812 -17.523438 7.65625 -16.894531 6.5625 -16.125 C 5.476562 -15.351562 4.65625 -14.796875 4.09375 -14.453125 Z M 1.078125 -14.453125 "/></g></g></g></g></svg>