<svg xmlns="http://www.w3.org/2000/svg" xmlns:xlink="http://www.w3.org/1999/xlink" width="500" zoomAndPan="magnify" viewBox="0 0 375 374.999991" height="500" preserveAspectRatio="xMidYMid meet" version="1.0"><defs><g/><clipPath id="80c1292bf0"><path d="M 21.195312 149.535156 L 66 149.535156 L 66 225 L 21.195312 225 Z M 21.195312 149.535156 " clip-rule="nonzero"/></clipPath><clipPath id="81bf5b1345"><path d="M 21.195312 149.535156 L 78 149.535156 L 78 225.285156 L 21.195312 225.285156 Z M 21.195312 149.535156 " clip-rule="nonzero"/></clipPath><clipPath id="e0a3a2897c"><path d="M 21.195312 212 L 66 212 L 66 225 L 21.195312 225 Z M 21.195312 212 " clip-rule="nonzero"/></clipPath><clipPath id="b4257a7d8e"><path d="M 21.195312 201 L 78 201 L 78 225.285156 L 21.195312 225.285156 Z M 21.195312 201 " clip-rule="nonzero"/></clipPath><clipPath id="c87618f37f"><path d="M 21.195312 149.535156 L 66 149.535156 L 66 161 L 21.195312 161 Z M 21.195312 149.535156 " clip-rule="nonzero"/></clipPath><clipPath id="2203b2f834"><path d="M 21.195312 149.535156 L 77 149.535156 L 77 172 L 21.195312 172 Z M 21.195312 149.535156 " clip-rule="nonzero"/></clipPath><clipPath id="02b1ad76e3"><path d="M 21.195312 204 L 68 204 L 68 225.285156 L 21.195312 225.285156 Z M 21.195312 204 " clip-rule="nonzero"/></clipPath><clipPath id="fe9fb119ad"><path d="M 21.195312 149.535156 L 70 149.535156 L 70 168 L 21.195312 168 Z M 21.195312 149.535156 " clip-rule="nonzero"/></clipPath><clipPath id="db535e5fda"><path d="M 21.195312 204 L 39 204 L 39 225.285156 L 21.195312 225.285156 Z M 21.195312 204 " clip-rule="nonzero"/></clipPath><clipPath id="c7ec04ec51"><path d="M 21.195312 210 L 40 210 L 40 225.285156 L 21.195312 225.285156 Z M 21.195312 210 " clip-rule="nonzero"/></clipPath><clipPath id="82a27f3d7c"><path d="M 47 149.535156 L 73 149.535156 L 73 167 L 47 167 Z M 47 149.535156 " clip-rule="nonzero"/></clipPath><clipPath id="2a2068cda7"><path d="M 50 149.535156 L 74 149.535156 L 74 169 L 50 169 Z M 50 149.535156 " clip-rule="nonzero"/></clipPath><clipPath id="13a678b981"><path d="M 48 168 L 80.445312 168 L 80.445312 201 L 48 201 Z M 48 168 " clip-rule="nonzero"/></clipPath><clipPath id="d52109c90c"><path d="M 42 160 L 80.445312 160 L 80.445312 207 L 42 207 Z M 42 160 " clip-rule="nonzero"/></clipPath></defs><g clip-path="url(#80c1292bf0)"><path fill="#bac4e8" d="M 53.539062 224.886719 L 33.875 224.886719 C 27.109375 224.886719 21.621094 219.414062 21.621094 212.664062 L 21.621094 162.152344 C 21.621094 155.402344 27.109375 149.933594 33.875 149.933594 L 53.539062 149.933594 C 60.304688 149.933594 65.789062 155.402344 65.789062 162.152344 L 65.789062 212.664062 C 65.789062 219.414062 60.304688 224.886719 53.539062 224.886719 " fill-opacity="1" fill-rule="nonzero"/></g><g clip-path="url(#81bf5b1345)"><path stroke-linecap="butt" transform="matrix(0.0265209, 0, 0, -0.026449, -5.548331, 243.639798)" fill="none" stroke-linejoin="miter" d="M 2227.956601 709.027311 L 1486.501014 709.027311 C 1231.395516 709.027311 1024.4537 915.940681 1024.4537 1171.148607 L 1024.4537 3080.925044 C 1024.4537 3336.13297 1231.395516 3542.89865 1486.501014 3542.89865 L 2227.956601 3542.89865 C 2483.062099 3542.89865 2689.856625 3336.13297 2689.856625 3080.925044 L 2689.856625 1171.148607 C 2689.856625 915.940681 2483.062099 709.027311 2227.956601 709.027311 Z M 2227.956601 709.027311 " stroke="#51399c" stroke-width="30" stroke-opacity="1" stroke-miterlimit="10"/></g><g clip-path="url(#e0a3a2897c)"><path fill="#996dff" d="M 21.628906 212.910156 C 21.757812 219.542969 27.191406 224.886719 33.875 224.886719 L 53.539062 224.886719 C 60.222656 224.886719 65.652344 219.542969 65.78125 212.910156 L 21.628906 212.910156 " fill-opacity="1" fill-rule="nonzero"/></g><g clip-path="url(#b4257a7d8e)"><path stroke-linecap="butt" transform="matrix(0.0265209, 0, 0, -0.026449, -5.548331, 243.639798)" fill="none" stroke-linejoin="miter" d="M 1024.748279 1161.844151 C 1029.608834 910.919229 1234.488596 709.027311 1486.501014 709.027311 L 2227.956601 709.027311 C 2479.969019 709.027311 2684.701491 910.919229 2689.562046 1161.844151 Z M 1024.748279 1161.844151 " stroke="#51399c" stroke-width="30" stroke-opacity="1" stroke-miterlimit="10"/></g><g clip-path="url(#c87618f37f)"><path fill="#996dff" d="M 65.6875 160.625 C 64.9375 154.597656 59.785156 149.933594 53.539062 149.933594 L 33.875 149.933594 C 27.625 149.933594 22.472656 154.597656 21.71875 160.625 L 65.6875 160.625 " fill-opacity="1" fill-rule="nonzero"/></g><g clip-path="url(#2203b2f834)"><path stroke-linecap="butt" transform="matrix(0.0265209, 0, 0, -0.026449, -5.548331, 243.639798)" fill="none" stroke-linejoin="miter" d="M 2686.027097 3138.671745 C 2657.747504 3366.557063 2463.472589 3542.89865 2227.956601 3542.89865 L 1486.501014 3542.89865 C 1250.837736 3542.89865 1056.562822 3366.557063 1028.135939 3138.671745 Z M 2686.027097 3138.671745 " stroke="#51399c" stroke-width="30" stroke-opacity="1" stroke-miterlimit="10"/></g><path fill="#ffffff" d="M 52.75 221.976562 L 34.660156 221.976562 C 32.953125 221.976562 31.574219 220.597656 31.574219 218.898438 C 31.574219 217.199219 32.953125 215.820312 34.660156 215.820312 L 52.75 215.820312 C 54.457031 215.820312 55.835938 217.199219 55.835938 218.898438 C 55.835938 220.597656 54.457031 221.976562 52.75 221.976562 " fill-opacity="1" fill-rule="nonzero"/><g clip-path="url(#02b1ad76e3)"><path stroke-linecap="butt" transform="matrix(0.0265209, 0, 0, -0.026449, -5.548331, 243.639798)" fill="none" stroke-linejoin="miter" d="M 2198.204112 819.203881 L 1516.106213 819.203881 C 1451.74068 819.203881 1399.74747 871.19068 1399.74747 935.435731 C 1399.74747 999.680782 1451.74068 1051.815271 1516.106213 1051.815271 L 2198.204112 1051.815271 C 2262.569645 1051.815271 2314.562856 999.680782 2314.562856 935.435731 C 2314.562856 871.19068 2262.569645 819.203881 2198.204112 819.203881 Z M 2198.204112 819.203881 " stroke="#51399c" stroke-width="30" stroke-opacity="1" stroke-miterlimit="10"/></g><path fill="#ffffff" d="M 57.109375 156.511719 L 30.300781 156.511719 C 29.621094 156.511719 29.066406 155.960938 29.066406 155.277344 C 29.066406 154.601562 29.621094 154.046875 30.300781 154.046875 L 57.109375 154.046875 C 57.792969 154.046875 58.34375 154.601562 58.34375 155.277344 C 58.34375 155.960938 57.792969 156.511719 57.109375 156.511719 " fill-opacity="1" fill-rule="nonzero"/><g clip-path="url(#fe9fb119ad)"><path stroke-linecap="butt" transform="matrix(0.0265209, 0, 0, -0.026449, -5.548331, 243.639798)" fill="none" stroke-linejoin="miter" d="M 2362.579249 3294.189074 L 1351.731077 3294.189074 C 1326.102696 3294.189074 1305.18758 3315.013332 1305.18758 3340.859042 C 1305.18758 3366.557063 1326.102696 3387.233631 1351.731077 3387.233631 L 2362.579249 3387.233631 C 2388.35492 3387.233631 2409.122746 3366.557063 2409.122746 3340.859042 C 2409.122746 3315.013332 2388.35492 3294.189074 2362.579249 3294.189074 Z M 2362.579249 3294.189074 " stroke="#51399c" stroke-width="30" stroke-opacity="1" stroke-miterlimit="10"/></g><path stroke-linecap="round" transform="matrix(0.0265209, 0, 0, -0.026449, -5.548331, 243.639798)" fill="none" stroke-linejoin="miter" d="M 1082.780361 2595.173385 L 1082.780361 2811.243521 " stroke="#51399c" stroke-width="30" stroke-opacity="1" stroke-miterlimit="10"/><path stroke-linecap="round" transform="matrix(0.0265209, 0, 0, -0.026449, -5.548331, 243.639798)" fill="none" stroke-linejoin="miter" d="M 1081.749335 2857.17504 L 1081.749335 2896.608209 " stroke="#51399c" stroke-width="30" stroke-opacity="1" stroke-miterlimit="10"/><path stroke-linecap="round" transform="matrix(0.0265209, 0, 0, -0.026449, -5.548331, 243.639798)" fill="none" stroke-linejoin="miter" d="M 2628.289594 1234.359829 L 2628.289594 1413.655212 " stroke="#51399c" stroke-width="30" stroke-opacity="1" stroke-miterlimit="10"/><path stroke-linecap="round" transform="matrix(0.0265209, 0, 0, -0.026449, -5.548331, 243.639798)" fill="none" stroke-linejoin="miter" d="M 2628.289594 1463.574355 L 2628.289594 1500.792177 " stroke="#51399c" stroke-width="30" stroke-opacity="1" stroke-miterlimit="10"/><g clip-path="url(#db535e5fda)"><path stroke-linecap="round" transform="matrix(0.0265209, 0, 0, -0.026449, -5.548331, 243.639798)" fill="none" stroke-linejoin="miter" d="M 1095.594552 1043.840023 C 1125.347041 969.108999 1173.363434 901.910153 1234.046728 849.332594 " stroke="#51399c" stroke-width="30" stroke-opacity="1" stroke-miterlimit="10"/></g><g clip-path="url(#c7ec04ec51)"><path stroke-linecap="round" transform="matrix(0.0265209, 0, 0, -0.026449, -5.548331, 243.639798)" fill="none" stroke-linejoin="miter" d="M 1267.334166 823.634574 C 1274.109485 816.397775 1282.3577 810.342494 1291.195073 805.911801 " stroke="#51399c" stroke-width="30" stroke-opacity="1" stroke-miterlimit="10"/></g><g clip-path="url(#82a27f3d7c)"><path stroke-linecap="round" transform="matrix(0.0265209, 0, 0, -0.026449, -5.548331, 243.639798)" fill="none" stroke-linejoin="miter" d="M 2436.518602 3435.232806 C 2475.844911 3406.72868 2510.016087 3371.135445 2536.675495 3330.668448 " stroke="#51399c" stroke-width="30" stroke-opacity="1" stroke-miterlimit="10"/></g><g clip-path="url(#2a2068cda7)"><path stroke-linecap="round" transform="matrix(0.0265209, 0, 0, -0.026449, -5.548331, 243.639798)" fill="none" stroke-linejoin="miter" d="M 2554.64482 3291.235279 C 2559.063506 3284.736929 2563.629482 3278.238579 2568.048169 3271.740229 " stroke="#51399c" stroke-width="30" stroke-opacity="1" stroke-miterlimit="10"/></g><g clip-path="url(#13a678b981)"><path fill="#00875f" d="M 65.121094 168.863281 C 56.875 168.863281 50.191406 175.527344 50.191406 183.75 C 50.191406 187.484375 51.574219 190.890625 53.847656 193.503906 C 53.800781 193.597656 53.753906 193.699219 53.699219 193.792969 C 52.597656 195.78125 50.953125 197.511719 48.898438 198.492188 C 51.90625 200.714844 56.367188 201.015625 59.75 199.414062 C 60.441406 199.085938 61.097656 198.691406 61.710938 198.242188 C 62.804688 198.496094 63.945312 198.636719 65.121094 198.636719 C 73.363281 198.636719 80.046875 191.972656 80.046875 183.75 C 80.046875 175.527344 73.363281 168.863281 65.121094 168.863281 " fill-opacity="1" fill-rule="nonzero"/><path stroke-linecap="butt" transform="matrix(0.0265209, 0, 0, -0.026449, -5.548331, 243.639798)" fill="none" stroke-linejoin="round" d="M 2664.670113 2827.194016 C 2353.741876 2827.194016 2101.729458 2575.235266 2101.729458 2264.348297 C 2101.729458 2123.156875 2153.869958 1994.371394 2239.592476 1895.566937 C 2237.825001 1892.022382 2236.057526 1888.182448 2233.995473 1884.637894 C 2192.45982 1809.4638 2130.45092 1744.037231 2052.976618 1706.967098 C 2166.38957 1622.931618 2334.594234 1611.559506 2462.146983 1672.112312 C 2488.217234 1684.518253 2512.961878 1699.43492 2536.086337 1716.419244 C 2577.32741 1706.819408 2620.335959 1701.502577 2664.670113 1701.502577 C 2975.45106 1701.502577 3227.463478 1953.461327 3227.463478 2264.348297 C 3227.463478 2575.235266 2975.45106 2827.194016 2664.670113 2827.194016 Z M 2664.670113 2827.194016 " stroke="#51399c" stroke-width="30" stroke-opacity="1" stroke-miterlimit="10"/></g><path fill="#ffffff" d="M 76.816406 183.78125 C 76.816406 190.265625 71.542969 195.527344 65.039062 195.527344 C 58.535156 195.527344 53.261719 190.265625 53.261719 183.78125 C 53.261719 177.292969 58.535156 172.035156 65.039062 172.035156 C 71.542969 172.035156 76.816406 177.292969 76.816406 183.78125 " fill-opacity="1" fill-rule="nonzero"/><g clip-path="url(#d52109c90c)"><path stroke-linecap="butt" transform="matrix(0.0265209, 0, 0, -0.026449, -5.548331, 243.639798)" fill="none" stroke-linejoin="miter" d="M 3105.655021 2263.166778 C 3105.655021 2018.001757 2906.81413 1819.063635 2661.577032 1819.063635 C 2416.339934 1819.063635 2217.499043 2018.001757 2217.499043 2263.166778 C 2217.499043 2508.479489 2416.339934 2707.269922 2661.577032 2707.269922 C 2906.81413 2707.269922 3105.655021 2508.479489 3105.655021 2263.166778 Z M 3105.655021 2263.166778 " stroke="#51399c" stroke-width="30" stroke-opacity="1" stroke-miterlimit="10"/></g><path stroke-linecap="round" transform="matrix(0.0265209, 0, 0, -0.026449, -5.548331, 243.639798)" fill="none" stroke-linejoin="round" d="M 2313.679119 2155.648625 C 2275.972994 2284.434105 2313.08996 2432.566946 2407.060692 2528.417608 " stroke="#51399c" stroke-width="30" stroke-opacity="1" stroke-miterlimit="10"/><path stroke-linecap="round" transform="matrix(0.0265209, 0, 0, -0.026449, -5.548331, 243.639798)" fill="none" stroke-linejoin="round" d="M 2459.790351 2572.133781 C 2472.457252 2580.552098 2485.271443 2589.118104 2497.938344 2597.536421 " stroke="#51399c" stroke-width="30" stroke-opacity="1" stroke-miterlimit="10"/><g fill="#996dff" fill-opacity="1"><g transform="translate(88.256735, 207.149737)"><g><path d="M 14.140625 -13.609375 L 14.140625 0 L 4.046875 0 L 4.046875 -37.40625 L 16.296875 -37.40625 C 26.460938 -37.40625 31.546875 -33.71875 31.546875 -26.34375 C 31.546875 -22.007812 29.429688 -18.660156 25.203125 -16.296875 L 36.09375 0 L 24.640625 0 L 16.703125 -13.609375 Z M 14.140625 -21.203125 L 16.046875 -21.203125 C 19.566406 -21.203125 21.328125 -22.765625 21.328125 -25.890625 C 21.328125 -28.460938 19.597656 -29.75 16.140625 -29.75 L 14.140625 -29.75 Z M 14.140625 -21.203125 "/></g></g></g><g fill="#996dff" fill-opacity="1"><g transform="translate(123.711117, 207.149737)"><g><path d="M 17.453125 0.515625 C 12.617188 0.515625 8.867188 -0.765625 6.203125 -3.328125 C 3.535156 -5.898438 2.203125 -9.554688 2.203125 -14.296875 C 2.203125 -19.191406 3.4375 -22.945312 5.90625 -25.5625 C 8.382812 -28.1875 11.914062 -29.5 16.5 -29.5 C 20.863281 -29.5 24.234375 -28.359375 26.609375 -26.078125 C 28.992188 -23.804688 30.1875 -20.53125 30.1875 -16.25 L 30.1875 -11.796875 L 12.296875 -11.796875 C 12.367188 -10.171875 12.960938 -8.894531 14.078125 -7.96875 C 15.203125 -7.050781 16.726562 -6.59375 18.65625 -6.59375 C 20.40625 -6.59375 22.015625 -6.757812 23.484375 -7.09375 C 24.960938 -7.425781 26.566406 -7.992188 28.296875 -8.796875 L 28.296875 -1.609375 C 26.722656 -0.804688 25.097656 -0.253906 23.421875 0.046875 C 21.753906 0.359375 19.765625 0.515625 17.453125 0.515625 Z M 16.859375 -22.6875 C 15.679688 -22.6875 14.695312 -22.316406 13.90625 -21.578125 C 13.113281 -20.835938 12.648438 -19.675781 12.515625 -18.09375 L 21.109375 -18.09375 C 21.066406 -19.488281 20.664062 -20.601562 19.90625 -21.4375 C 19.15625 -22.269531 18.140625 -22.6875 16.859375 -22.6875 Z M 16.859375 -22.6875 "/></g></g></g><g fill="#996dff" fill-opacity="1"><g transform="translate(156.095856, 207.149737)"><g><path d="M 25.84375 -8.90625 C 25.84375 -5.800781 24.785156 -3.453125 22.671875 -1.859375 C 20.554688 -0.273438 17.519531 0.515625 13.5625 0.515625 C 11.40625 0.515625 9.535156 0.398438 7.953125 0.171875 C 6.367188 -0.0546875 4.75 -0.476562 3.09375 -1.09375 L 3.09375 -9.109375 C 4.644531 -8.421875 6.34375 -7.851562 8.1875 -7.40625 C 10.039062 -6.96875 11.695312 -6.75 13.15625 -6.75 C 15.3125 -6.75 16.390625 -7.242188 16.390625 -8.234375 C 16.390625 -8.742188 16.085938 -9.195312 15.484375 -9.59375 C 14.878906 -10 13.117188 -10.785156 10.203125 -11.953125 C 7.546875 -13.035156 5.6875 -14.269531 4.625 -15.65625 C 3.570312 -17.050781 3.046875 -18.816406 3.046875 -20.953125 C 3.046875 -23.648438 4.082031 -25.75 6.15625 -27.25 C 8.238281 -28.75 11.179688 -29.5 14.984375 -29.5 C 16.898438 -29.5 18.695312 -29.285156 20.375 -28.859375 C 22.050781 -28.441406 23.796875 -27.835938 25.609375 -27.046875 L 22.890625 -20.59375 C 21.566406 -21.1875 20.160156 -21.691406 18.671875 -22.109375 C 17.191406 -22.523438 15.984375 -22.734375 15.046875 -22.734375 C 13.410156 -22.734375 12.59375 -22.335938 12.59375 -21.546875 C 12.59375 -21.046875 12.875 -20.617188 13.4375 -20.265625 C 14.007812 -19.921875 15.660156 -19.210938 18.390625 -18.140625 C 20.421875 -17.304688 21.9375 -16.488281 22.9375 -15.6875 C 23.9375 -14.882812 24.671875 -13.941406 25.140625 -12.859375 C 25.609375 -11.773438 25.84375 -10.457031 25.84375 -8.90625 Z M 25.84375 -8.90625 "/></g></g></g><g fill="#996dff" fill-opacity="1"><g transform="translate(184.029612, 207.149737)"><g><path d="M 31.125 -14.5625 C 31.125 -9.8125 29.847656 -6.109375 27.296875 -3.453125 C 24.753906 -0.804688 21.191406 0.515625 16.609375 0.515625 C 12.203125 0.515625 8.695312 -0.835938 6.09375 -3.546875 C 3.5 -6.265625 2.203125 -9.9375 2.203125 -14.5625 C 2.203125 -19.28125 3.472656 -22.945312 6.015625 -25.5625 C 8.566406 -28.1875 12.144531 -29.5 16.75 -29.5 C 19.601562 -29.5 22.117188 -28.890625 24.296875 -27.671875 C 26.484375 -26.460938 28.164062 -24.726562 29.34375 -22.46875 C 30.53125 -20.207031 31.125 -17.570312 31.125 -14.5625 Z M 12.359375 -14.5625 C 12.359375 -12.070312 12.6875 -10.171875 13.34375 -8.859375 C 14.007812 -7.554688 15.128906 -6.90625 16.703125 -6.90625 C 18.253906 -6.90625 19.347656 -7.554688 19.984375 -8.859375 C 20.628906 -10.171875 20.953125 -12.070312 20.953125 -14.5625 C 20.953125 -17.03125 20.625 -18.894531 19.96875 -20.15625 C 19.320312 -21.414062 18.21875 -22.046875 16.65625 -22.046875 C 15.113281 -22.046875 14.007812 -21.421875 13.34375 -20.171875 C 12.6875 -18.921875 12.359375 -17.050781 12.359375 -14.5625 Z M 12.359375 -14.5625 "/></g></g></g><g fill="#996dff" fill-opacity="1"><g transform="translate(217.411986, 207.149737)"><g><path d="M 13.453125 0 L 3.453125 0 L 3.453125 -39.796875 L 13.453125 -39.796875 Z M 13.453125 0 "/></g></g></g><g fill="#996dff" fill-opacity="1"><g transform="translate(234.346186, 207.149737)"><g><path d="M 11.046875 0 L 0 -28.984375 L 10.4375 -28.984375 L 15.34375 -11.84375 C 15.363281 -11.757812 15.398438 -11.613281 15.453125 -11.40625 C 15.503906 -11.207031 15.554688 -10.96875 15.609375 -10.6875 C 15.660156 -10.40625 15.707031 -10.101562 15.75 -9.78125 C 15.789062 -9.46875 15.8125 -9.175781 15.8125 -8.90625 L 15.984375 -8.90625 C 15.984375 -9.789062 16.140625 -10.753906 16.453125 -11.796875 L 21.59375 -28.984375 L 32 -28.984375 L 20.953125 0 Z M 11.046875 0 "/></g></g></g><g fill="#996dff" fill-opacity="1"><g transform="translate(266.347219, 207.149737)"><g><path d="M 17.453125 0.515625 C 12.617188 0.515625 8.867188 -0.765625 6.203125 -3.328125 C 3.535156 -5.898438 2.203125 -9.554688 2.203125 -14.296875 C 2.203125 -19.191406 3.4375 -22.945312 5.90625 -25.5625 C 8.382812 -28.1875 11.914062 -29.5 16.5 -29.5 C 20.863281 -29.5 24.234375 -28.359375 26.609375 -26.078125 C 28.992188 -23.804688 30.1875 -20.53125 30.1875 -16.25 L 30.1875 -11.796875 L 12.296875 -11.796875 C 12.367188 -10.171875 12.960938 -8.894531 14.078125 -7.96875 C 15.203125 -7.050781 16.726562 -6.59375 18.65625 -6.59375 C 20.40625 -6.59375 22.015625 -6.757812 23.484375 -7.09375 C 24.960938 -7.425781 26.566406 -7.992188 28.296875 -8.796875 L 28.296875 -1.609375 C 26.722656 -0.804688 25.097656 -0.253906 23.421875 0.046875 C 21.753906 0.359375 19.765625 0.515625 17.453125 0.515625 Z M 16.859375 -22.6875 C 15.679688 -22.6875 14.695312 -22.316406 13.90625 -21.578125 C 13.113281 -20.835938 12.648438 -19.675781 12.515625 -18.09375 L 21.109375 -18.09375 C 21.066406 -19.488281 20.664062 -20.601562 19.90625 -21.4375 C 19.15625 -22.269531 18.140625 -22.6875 16.859375 -22.6875 Z M 16.859375 -22.6875 "/></g></g></g><g fill="#00875f" fill-opacity="1"><g transform="translate(298.715993, 207.149737)"><g><path d="M 26.984375 0 L 25.140625 -7.015625 L 13 -7.015625 L 11.109375 0 L 0 0 L 12.203125 -37.546875 L 25.6875 -37.546875 L 38.046875 0 Z M 23.046875 -15.296875 L 21.4375 -21.4375 C 21.0625 -22.800781 20.601562 -24.566406 20.0625 -26.734375 C 19.53125 -28.898438 19.175781 -30.453125 19 -31.390625 C 18.851562 -30.515625 18.550781 -29.078125 18.09375 -27.078125 C 17.644531 -25.085938 16.644531 -21.160156 15.09375 -15.296875 Z M 23.046875 -15.296875 "/></g></g></g><g fill="#00875f" fill-opacity="1"><g transform="translate(336.753992, 207.149737)"><g><path d="M 13.5 0 L 3.5 0 L 3.5 -28.984375 L 13.5 -28.984375 Z M 2.75 -31.75 L 2.75 -32.484375 C 5.375 -35.296875 7.039062 -37.113281 7.75 -37.9375 C 8.457031 -38.757812 9.039062 -39.492188 9.5 -40.140625 L 20.453125 -40.140625 L 20.453125 -39.59375 C 19.085938 -38.507812 17.210938 -37.117188 14.828125 -35.421875 C 12.441406 -33.734375 10.632812 -32.507812 9.40625 -31.75 Z M 2.75 -31.75 "/></g></g></g></svg>