<svg xmlns="http://www.w3.org/2000/svg" xmlns:xlink="http://www.w3.org/1999/xlink" width="163" zoomAndPan="magnify" viewBox="0 0 122.25 65.249999" height="87" preserveAspectRatio="xMidYMid meet" version="1.0"><defs><g/><clipPath id="a228dabcac"><path d="M 0.324219 18.457031 L 17 18.457031 L 17 45.894531 L 0.324219 45.894531 Z M 0.324219 18.457031 " clip-rule="nonzero"/></clipPath><clipPath id="f822747f37"><path d="M 0.324219 18.457031 L 21 18.457031 L 21 45.894531 L 0.324219 45.894531 Z M 0.324219 18.457031 " clip-rule="nonzero"/></clipPath><clipPath id="48a5558a7c"><path d="M 0.324219 41 L 17 41 L 17 45.894531 L 0.324219 45.894531 Z M 0.324219 41 " clip-rule="nonzero"/></clipPath><clipPath id="4736634968"><path d="M 0.324219 37 L 21 37 L 21 45.894531 L 0.324219 45.894531 Z M 0.324219 37 " clip-rule="nonzero"/></clipPath><clipPath id="2d27cd72b3"><path d="M 0.324219 18.457031 L 17 18.457031 L 17 23 L 0.324219 23 Z M 0.324219 18.457031 " clip-rule="nonzero"/></clipPath><clipPath id="c81c0d4691"><path d="M 0.324219 18.457031 L 21 18.457031 L 21 27 L 0.324219 27 Z M 0.324219 18.457031 " clip-rule="nonzero"/></clipPath><clipPath id="0d7ec468cc"><path d="M 0.324219 38 L 17 38 L 17 45.894531 L 0.324219 45.894531 Z M 0.324219 38 " clip-rule="nonzero"/></clipPath><clipPath id="9895119023"><path d="M 0.324219 18.457031 L 18 18.457031 L 18 26 L 0.324219 26 Z M 0.324219 18.457031 " clip-rule="nonzero"/></clipPath><clipPath id="c27b1146ff"><path d="M 0.324219 25 L 2 25 L 2 28 L 0.324219 28 Z M 0.324219 25 " clip-rule="nonzero"/></clipPath><clipPath id="372d9ad831"><path d="M 0.324219 24 L 2 24 L 2 26 L 0.324219 26 Z M 0.324219 24 " clip-rule="nonzero"/></clipPath><clipPath id="d14b479fe1"><path d="M 0.324219 38 L 7 38 L 7 45.894531 L 0.324219 45.894531 Z M 0.324219 38 " clip-rule="nonzero"/></clipPath><clipPath id="a5c65e6e14"><path d="M 0.324219 40 L 8 40 L 8 45.894531 L 0.324219 45.894531 Z M 0.324219 40 " clip-rule="nonzero"/></clipPath><clipPath id="e3ba5d43a9"><path d="M 9 18.457031 L 20 18.457031 L 20 25 L 9 25 Z M 9 18.457031 " clip-rule="nonzero"/></clipPath><clipPath id="2145b63837"><path d="M 11 18.457031 L 20 18.457031 L 20 26 L 11 26 Z M 11 18.457031 " clip-rule="nonzero"/></clipPath><clipPath id="e9875536d2"><path d="M 10 25 L 21.828125 25 L 21.828125 37 L 10 37 Z M 10 25 " clip-rule="nonzero"/></clipPath><clipPath id="2d92373a18"><path d="M 10 25 L 21.828125 25 L 21.828125 38 L 10 38 Z M 10 25 " clip-rule="nonzero"/></clipPath><clipPath id="dd0c6a08ac"><path d="M 7 22 L 21.828125 22 L 21.828125 40 L 7 40 Z M 7 22 " clip-rule="nonzero"/></clipPath><clipPath id="2108b6ac07"><path d="M 115 24 L 121.183594 24 L 121.183594 40 L 115 40 Z M 115 24 " clip-rule="nonzero"/></clipPath></defs><g clip-path="url(#a228dabcac)"><path fill="#bac4e8" d="M 12.0625 45.75 L 4.925781 45.75 C 2.46875 45.75 0.476562 43.765625 0.476562 41.324219 L 0.476562 23.027344 C 0.476562 20.585938 2.46875 18.601562 4.925781 18.601562 L 12.0625 18.601562 C 14.515625 18.601562 16.507812 20.585938 16.507812 23.027344 L 16.507812 41.324219 C 16.507812 43.765625 14.515625 45.75 12.0625 45.75 " fill-opacity="1" fill-rule="nonzero"/></g><g clip-path="url(#f822747f37)"><path stroke-linecap="butt" transform="matrix(0.00962654, 0, 0, -0.00957914, -9.385931, 52.541021)" fill="none" stroke-linejoin="miter" d="M 2228.051524 708.93842 L 1486.693 708.93842 C 1231.457908 708.93842 1024.510537 916.094275 1024.510537 1170.961223 L 1024.510537 3081.036074 C 1024.510537 3335.903022 1231.457908 3543.058877 1486.693 3543.058877 L 2228.051524 3543.058877 C 2482.880836 3543.058877 2689.828208 3335.903022 2689.828208 3081.036074 L 2689.828208 1170.961223 C 2689.828208 916.094275 2482.880836 708.93842 2228.051524 708.93842 Z M 2228.051524 708.93842 " stroke="#51399c" stroke-width="30" stroke-opacity="1" stroke-miterlimit="10"/></g><g clip-path="url(#48a5558a7c)"><path fill="#996dff" d="M 0.476562 41.410156 C 0.527344 43.8125 2.496094 45.75 4.925781 45.75 L 12.0625 45.75 C 14.488281 45.75 16.457031 43.8125 16.503906 41.410156 L 0.476562 41.410156 " fill-opacity="1" fill-rule="nonzero"/></g><g clip-path="url(#4736634968)"><path stroke-linecap="butt" transform="matrix(0.00962654, 0, 0, -0.00957914, -9.385931, 52.541021)" fill="none" stroke-linejoin="miter" d="M 1024.510537 1161.989906 C 1029.785666 910.793042 1234.298363 708.93842 1486.693 708.93842 L 2228.051524 708.93842 C 2480.040382 708.93842 2684.553079 910.793042 2689.422428 1161.989906 Z M 1024.510537 1161.989906 " stroke="#51399c" stroke-width="30" stroke-opacity="1" stroke-miterlimit="10"/></g><g clip-path="url(#2d27cd72b3)"><path fill="#996dff" d="M 16.472656 22.476562 C 16.199219 20.292969 14.328125 18.601562 12.0625 18.601562 L 4.925781 18.601562 C 2.65625 18.601562 0.785156 20.292969 0.511719 22.476562 L 16.472656 22.476562 " fill-opacity="1" fill-rule="nonzero"/></g><g clip-path="url(#c81c0d4691)"><path stroke-linecap="butt" transform="matrix(0.00962654, 0, 0, -0.00957914, -9.385931, 52.541021)" fill="none" stroke-linejoin="miter" d="M 2686.176195 3138.534057 C 2657.771654 3366.487055 2463.403437 3543.058877 2228.051524 3543.058877 L 1486.693 3543.058877 C 1250.935308 3543.058877 1056.567091 3366.487055 1028.162549 3138.534057 Z M 2686.176195 3138.534057 " stroke="#51399c" stroke-width="30" stroke-opacity="1" stroke-miterlimit="10"/></g><path fill="#ffffff" d="M 11.773438 44.695312 L 5.207031 44.695312 C 4.589844 44.695312 4.089844 44.195312 4.089844 43.578125 C 4.089844 42.964844 4.589844 42.464844 5.207031 42.464844 L 11.773438 42.464844 C 12.394531 42.464844 12.894531 42.964844 12.894531 43.578125 C 12.894531 44.195312 12.394531 44.695312 11.773438 44.695312 " fill-opacity="1" fill-rule="nonzero"/><g clip-path="url(#0d7ec468cc)"><path stroke-linecap="butt" transform="matrix(0.00962654, 0, 0, -0.00957914, -9.385931, 52.541021)" fill="none" stroke-linejoin="miter" d="M 2198.023866 819.040941 L 1515.909099 819.040941 C 1451.795992 819.040941 1399.85626 871.237692 1399.85626 935.668057 C 1399.85626 999.690634 1451.795992 1051.887385 1515.909099 1051.887385 L 2198.023866 1051.887385 C 2262.542753 1051.887385 2314.482485 999.690634 2314.482485 935.668057 C 2314.482485 871.237692 2262.542753 819.040941 2198.023866 819.040941 Z M 2198.023866 819.040941 " stroke="#51399c" stroke-width="30" stroke-opacity="1" stroke-miterlimit="10"/></g><path fill="#ffffff" d="M 13.359375 20.984375 L 3.628906 20.984375 C 3.378906 20.984375 3.179688 20.785156 3.179688 20.539062 C 3.179688 20.292969 3.378906 20.09375 3.628906 20.09375 L 13.359375 20.09375 C 13.605469 20.09375 13.804688 20.292969 13.804688 20.539062 C 13.804688 20.785156 13.605469 20.984375 13.359375 20.984375 " fill-opacity="1" fill-rule="nonzero"/><g clip-path="url(#9895119023)"><path stroke-linecap="butt" transform="matrix(0.00962654, 0, 0, -0.00957914, -9.385931, 52.541021)" fill="none" stroke-linejoin="miter" d="M 2362.770205 3294.308736 L 1351.974319 3294.308736 C 1326.004453 3294.308736 1305.309715 3315.105879 1305.309715 3340.796467 C 1305.309715 3366.487055 1326.004453 3387.284198 1351.974319 3387.284198 L 2362.770205 3387.284198 C 2388.334292 3387.284198 2409.029029 3366.487055 2409.029029 3340.796467 C 2409.029029 3315.105879 2388.334292 3294.308736 2362.770205 3294.308736 Z M 2362.770205 3294.308736 " stroke="#51399c" stroke-width="30" stroke-opacity="1" stroke-miterlimit="10"/></g><g clip-path="url(#c27b1146ff)"><path stroke-linecap="round" transform="matrix(0.00962654, 0, 0, -0.00957914, -9.385931, 52.541021)" fill="none" stroke-linejoin="miter" d="M 1082.942736 2594.953832 L 1082.942736 2811.48879 " stroke="#51399c" stroke-width="30" stroke-opacity="1" stroke-miterlimit="10"/></g><g clip-path="url(#372d9ad831)"><path stroke-linecap="round" transform="matrix(0.00962654, 0, 0, -0.00957914, -9.385931, 52.541021)" fill="none" stroke-linejoin="miter" d="M 1081.725399 2857.160947 L 1081.725399 2896.716298 " stroke="#51399c" stroke-width="30" stroke-opacity="1" stroke-miterlimit="10"/></g><path stroke-linecap="round" transform="matrix(0.00962654, 0, 0, -0.00957914, -9.385931, 52.541021)" fill="none" stroke-linejoin="miter" d="M 2628.149775 1234.168225 L 2628.149775 1413.594557 " stroke="#51399c" stroke-width="30" stroke-opacity="1" stroke-miterlimit="10"/><path stroke-linecap="round" transform="matrix(0.00962654, 0, 0, -0.00957914, -9.385931, 52.541021)" fill="none" stroke-linejoin="miter" d="M 2628.149775 1463.752372 L 2628.149775 1500.860999 " stroke="#51399c" stroke-width="30" stroke-opacity="1" stroke-miterlimit="10"/><g clip-path="url(#d14b479fe1)"><path stroke-linecap="round" transform="matrix(0.00962654, 0, 0, -0.00957914, -9.385931, 52.541021)" fill="none" stroke-linejoin="miter" d="M 1095.52189 1043.731642 C 1125.549548 969.1066 1173.431489 901.821726 1233.892583 849.217188 " stroke="#51399c" stroke-width="30" stroke-opacity="1" stroke-miterlimit="10"/></g><g clip-path="url(#a5c65e6e14)"><path stroke-linecap="round" transform="matrix(0.00962654, 0, 0, -0.00957914, -9.385931, 52.541021)" fill="none" stroke-linejoin="miter" d="M 1267.166474 823.5266 C 1274.06472 816.594219 1282.180303 810.477412 1291.107445 805.991754 " stroke="#51399c" stroke-width="30" stroke-opacity="1" stroke-miterlimit="10"/></g><g clip-path="url(#e3ba5d43a9)"><path stroke-linecap="round" transform="matrix(0.00962654, 0, 0, -0.00957914, -9.385931, 52.541021)" fill="none" stroke-linejoin="miter" d="M 2436.622012 3435.403078 C 2475.982591 3406.85798 2510.06804 3371.380501 2536.849464 3330.601789 " stroke="#51399c" stroke-width="30" stroke-opacity="1" stroke-miterlimit="10"/></g><g clip-path="url(#2145b63837)"><path stroke-linecap="round" transform="matrix(0.00962654, 0, 0, -0.00957914, -9.385931, 52.541021)" fill="none" stroke-linejoin="miter" d="M 2554.703747 3291.454226 C 2559.167318 3284.929632 2563.630889 3278.405038 2568.09446 3271.880444 " stroke="#51399c" stroke-width="30" stroke-opacity="1" stroke-miterlimit="10"/></g><g clip-path="url(#e9875536d2)"><path fill="#00875f" d="M 16.265625 25.457031 C 13.273438 25.457031 10.847656 27.871094 10.847656 30.851562 C 10.847656 32.203125 11.347656 33.4375 12.171875 34.382812 C 12.15625 34.417969 12.140625 34.453125 12.121094 34.488281 C 11.71875 35.207031 11.125 35.835938 10.378906 36.1875 C 11.46875 36.996094 13.089844 37.101562 14.316406 36.523438 C 14.566406 36.40625 14.804688 36.261719 15.027344 36.097656 C 15.425781 36.191406 15.839844 36.242188 16.265625 36.242188 C 19.257812 36.242188 21.683594 33.828125 21.683594 30.851562 C 21.683594 27.871094 19.257812 25.457031 16.265625 25.457031 " fill-opacity="1" fill-rule="nonzero"/></g><g clip-path="url(#2d92373a18)"><path stroke-linecap="butt" transform="matrix(0.00962654, 0, 0, -0.00957914, -9.385931, 52.541021)" fill="none" stroke-linejoin="round" d="M 2664.6699 2827.392488 C 2353.843064 2827.392488 2101.854206 2575.38005 2101.854206 2264.238481 C 2101.854206 2123.144138 2153.793938 1994.28341 2239.413341 1895.598928 C 2237.790224 1891.928844 2236.167107 1888.25876 2234.138211 1884.588676 C 2192.342958 1809.555846 2130.664526 1743.902121 2053.160706 1707.20128 C 2166.373092 1622.789347 2334.771443 1611.779095 2462.186099 1672.131588 C 2488.155965 1684.365202 2512.908494 1699.453325 2536.037906 1716.580384 C 2577.42738 1706.793493 2620.439971 1701.49226 2664.6699 1701.49226 C 2975.496736 1701.49226 3227.485594 1953.504698 3227.485594 2264.238481 C 3227.485594 2575.38005 2975.496736 2827.392488 2664.6699 2827.392488 Z M 2664.6699 2827.392488 " stroke="#51399c" stroke-width="30" stroke-opacity="1" stroke-miterlimit="10"/></g><path fill="#ffffff" d="M 20.511719 30.863281 C 20.511719 33.210938 18.597656 35.117188 16.234375 35.117188 C 13.875 35.117188 11.960938 33.210938 11.960938 30.863281 C 11.960938 28.511719 13.875 26.605469 16.234375 26.605469 C 18.597656 26.605469 20.511719 28.511719 20.511719 30.863281 " fill-opacity="1" fill-rule="nonzero"/><g clip-path="url(#dd0c6a08ac)"><path stroke-linecap="butt" transform="matrix(0.00962654, 0, 0, -0.00957914, -9.385931, 52.541021)" fill="none" stroke-linejoin="miter" d="M 3105.751846 2263.015119 C 3105.751846 2017.935063 2906.920058 1818.93495 2661.423666 1818.93495 C 2416.333054 1818.93495 2217.501266 2017.935063 2217.501266 2263.015119 C 2217.501266 2508.502963 2416.333054 2707.503076 2661.423666 2707.503076 C 2906.920058 2707.503076 3105.751846 2508.502963 3105.751846 2263.015119 Z M 3105.751846 2263.015119 " stroke="#51399c" stroke-width="30" stroke-opacity="1" stroke-miterlimit="10"/></g><path stroke-linecap="round" transform="matrix(0.00962654, 0, 0, -0.00957914, -9.385931, 52.541021)" fill="none" stroke-linejoin="round" d="M 2313.670927 2155.767108 C 2275.933465 2284.627836 2313.265148 2432.65456 2407.000133 2528.484532 " stroke="#51399c" stroke-width="30" stroke-opacity="1" stroke-miterlimit="10"/><path stroke-linecap="round" transform="matrix(0.00962654, 0, 0, -0.00957914, -9.385931, 52.541021)" fill="none" stroke-linejoin="round" d="M 2459.751424 2572.117753 C 2472.330578 2580.681283 2485.315511 2589.244812 2497.894665 2597.400554 " stroke="#51399c" stroke-width="30" stroke-opacity="1" stroke-miterlimit="10"/><g fill="#996dff" fill-opacity="1"><g transform="translate(24.691751, 39.394488)"><g><path d="M 5.140625 -4.9375 L 5.140625 0 L 1.46875 0 L 1.46875 -13.578125 L 5.921875 -13.578125 C 9.609375 -13.578125 11.453125 -12.242188 11.453125 -9.578125 C 11.453125 -8.003906 10.6875 -6.785156 9.15625 -5.921875 L 13.109375 0 L 8.953125 0 L 6.0625 -4.9375 Z M 5.140625 -7.703125 L 5.828125 -7.703125 C 7.109375 -7.703125 7.75 -8.269531 7.75 -9.40625 C 7.75 -10.34375 7.117188 -10.8125 5.859375 -10.8125 L 5.140625 -10.8125 Z M 5.140625 -7.703125 "/></g></g></g><g fill="#996dff" fill-opacity="1"><g transform="translate(37.574982, 39.394488)"><g><path d="M 6.34375 0.1875 C 4.582031 0.1875 3.21875 -0.273438 2.25 -1.203125 C 1.28125 -2.140625 0.796875 -3.46875 0.796875 -5.1875 C 0.796875 -6.96875 1.242188 -8.332031 2.140625 -9.28125 C 3.046875 -10.238281 4.332031 -10.71875 6 -10.71875 C 7.582031 -10.71875 8.804688 -10.300781 9.671875 -9.46875 C 10.535156 -8.644531 10.96875 -7.457031 10.96875 -5.90625 L 10.96875 -4.28125 L 4.46875 -4.28125 C 4.488281 -3.695312 4.703125 -3.234375 5.109375 -2.890625 C 5.515625 -2.554688 6.070312 -2.390625 6.78125 -2.390625 C 7.414062 -2.390625 8 -2.453125 8.53125 -2.578125 C 9.070312 -2.703125 9.65625 -2.910156 10.28125 -3.203125 L 10.28125 -0.578125 C 9.707031 -0.296875 9.113281 -0.0976562 8.5 0.015625 C 7.894531 0.128906 7.175781 0.1875 6.34375 0.1875 Z M 6.125 -8.25 C 5.695312 -8.25 5.335938 -8.113281 5.046875 -7.84375 C 4.765625 -7.570312 4.597656 -7.144531 4.546875 -6.5625 L 7.671875 -6.5625 C 7.648438 -7.070312 7.503906 -7.476562 7.234375 -7.78125 C 6.960938 -8.09375 6.59375 -8.25 6.125 -8.25 Z M 6.125 -8.25 "/></g></g></g><g fill="#996dff" fill-opacity="1"><g transform="translate(49.342782, 39.394488)"><g><path d="M 9.390625 -3.234375 C 9.390625 -2.109375 9.003906 -1.253906 8.234375 -0.671875 C 7.460938 -0.0976562 6.359375 0.1875 4.921875 0.1875 C 4.140625 0.1875 3.460938 0.144531 2.890625 0.0625 C 2.316406 -0.0195312 1.726562 -0.175781 1.125 -0.40625 L 1.125 -3.3125 C 1.6875 -3.0625 2.300781 -2.851562 2.96875 -2.6875 C 3.644531 -2.53125 4.25 -2.453125 4.78125 -2.453125 C 5.5625 -2.453125 5.953125 -2.632812 5.953125 -3 C 5.953125 -3.175781 5.84375 -3.335938 5.625 -3.484375 C 5.40625 -3.628906 4.765625 -3.914062 3.703125 -4.34375 C 2.742188 -4.738281 2.070312 -5.1875 1.6875 -5.6875 C 1.300781 -6.195312 1.109375 -6.835938 1.109375 -7.609375 C 1.109375 -8.585938 1.484375 -9.347656 2.234375 -9.890625 C 2.992188 -10.441406 4.066406 -10.71875 5.453125 -10.71875 C 6.140625 -10.71875 6.785156 -10.640625 7.390625 -10.484375 C 8.003906 -10.335938 8.640625 -10.117188 9.296875 -9.828125 L 8.3125 -7.484375 C 7.832031 -7.703125 7.320312 -7.882812 6.78125 -8.03125 C 6.238281 -8.1875 5.800781 -8.265625 5.46875 -8.265625 C 4.875 -8.265625 4.578125 -8.117188 4.578125 -7.828125 C 4.578125 -7.648438 4.675781 -7.492188 4.875 -7.359375 C 5.082031 -7.234375 5.6875 -6.976562 6.6875 -6.59375 C 7.414062 -6.289062 7.960938 -5.992188 8.328125 -5.703125 C 8.691406 -5.410156 8.957031 -5.066406 9.125 -4.671875 C 9.300781 -4.273438 9.390625 -3.796875 9.390625 -3.234375 Z M 9.390625 -3.234375 "/></g></g></g><g fill="#996dff" fill-opacity="1"><g transform="translate(59.493207, 39.394488)"><g><path d="M 11.3125 -5.28125 C 11.3125 -3.5625 10.847656 -2.21875 9.921875 -1.25 C 8.992188 -0.289062 7.695312 0.1875 6.03125 0.1875 C 4.4375 0.1875 3.164062 -0.300781 2.21875 -1.28125 C 1.269531 -2.269531 0.796875 -3.601562 0.796875 -5.28125 C 0.796875 -7 1.257812 -8.332031 2.1875 -9.28125 C 3.113281 -10.238281 4.414062 -10.71875 6.09375 -10.71875 C 7.125 -10.71875 8.035156 -10.492188 8.828125 -10.046875 C 9.617188 -9.609375 10.226562 -8.976562 10.65625 -8.15625 C 11.09375 -7.34375 11.3125 -6.382812 11.3125 -5.28125 Z M 4.484375 -5.28125 C 4.484375 -4.382812 4.601562 -3.695312 4.84375 -3.21875 C 5.09375 -2.75 5.5 -2.515625 6.0625 -2.515625 C 6.625 -2.515625 7.019531 -2.75 7.25 -3.21875 C 7.488281 -3.695312 7.609375 -4.382812 7.609375 -5.28125 C 7.609375 -6.1875 7.488281 -6.867188 7.25 -7.328125 C 7.019531 -7.785156 6.617188 -8.015625 6.046875 -8.015625 C 5.492188 -8.015625 5.09375 -7.785156 4.84375 -7.328125 C 4.601562 -6.867188 4.484375 -6.1875 4.484375 -5.28125 Z M 4.484375 -5.28125 "/></g></g></g><g fill="#996dff" fill-opacity="1"><g transform="translate(71.623522, 39.394488)"><g><path d="M 4.890625 0 L 1.25 0 L 1.25 -14.453125 L 4.890625 -14.453125 Z M 4.890625 0 "/></g></g></g><g fill="#996dff" fill-opacity="1"><g transform="translate(77.776985, 39.394488)"><g><path d="M 4.015625 0 L 0 -10.53125 L 3.796875 -10.53125 L 5.578125 -4.296875 C 5.578125 -4.265625 5.585938 -4.210938 5.609375 -4.140625 C 5.628906 -4.066406 5.648438 -3.976562 5.671875 -3.875 C 5.691406 -3.769531 5.707031 -3.660156 5.71875 -3.546875 C 5.738281 -3.429688 5.75 -3.328125 5.75 -3.234375 L 5.8125 -3.234375 C 5.8125 -3.554688 5.863281 -3.90625 5.96875 -4.28125 L 7.84375 -10.53125 L 11.625 -10.53125 L 7.609375 0 Z M 4.015625 0 "/></g></g></g><g fill="#996dff" fill-opacity="1"><g transform="translate(89.405356, 39.394488)"><g><path d="M 6.34375 0.1875 C 4.582031 0.1875 3.21875 -0.273438 2.25 -1.203125 C 1.28125 -2.140625 0.796875 -3.46875 0.796875 -5.1875 C 0.796875 -6.96875 1.242188 -8.332031 2.140625 -9.28125 C 3.046875 -10.238281 4.332031 -10.71875 6 -10.71875 C 7.582031 -10.71875 8.804688 -10.300781 9.671875 -9.46875 C 10.535156 -8.644531 10.96875 -7.457031 10.96875 -5.90625 L 10.96875 -4.28125 L 4.46875 -4.28125 C 4.488281 -3.695312 4.703125 -3.234375 5.109375 -2.890625 C 5.515625 -2.554688 6.070312 -2.390625 6.78125 -2.390625 C 7.414062 -2.390625 8 -2.453125 8.53125 -2.578125 C 9.070312 -2.703125 9.65625 -2.910156 10.28125 -3.203125 L 10.28125 -0.578125 C 9.707031 -0.296875 9.113281 -0.0976562 8.5 0.015625 C 7.894531 0.128906 7.175781 0.1875 6.34375 0.1875 Z M 6.125 -8.25 C 5.695312 -8.25 5.335938 -8.113281 5.046875 -7.84375 C 4.765625 -7.570312 4.597656 -7.144531 4.546875 -6.5625 L 7.671875 -6.5625 C 7.648438 -7.070312 7.503906 -7.476562 7.234375 -7.78125 C 6.960938 -8.09375 6.59375 -8.25 6.125 -8.25 Z M 6.125 -8.25 "/></g></g></g><g fill="#00875f" fill-opacity="1"><g transform="translate(101.167354, 39.394488)"><g><path d="M 9.796875 0 L 9.140625 -2.546875 L 4.71875 -2.546875 L 4.03125 0 L 0 0 L 4.4375 -13.640625 L 9.328125 -13.640625 L 13.8125 0 Z M 8.375 -5.5625 L 7.78125 -7.78125 C 7.644531 -8.28125 7.476562 -8.921875 7.28125 -9.703125 C 7.09375 -10.492188 6.96875 -11.0625 6.90625 -11.40625 C 6.851562 -11.082031 6.742188 -10.554688 6.578125 -9.828125 C 6.410156 -9.109375 6.046875 -7.6875 5.484375 -5.5625 Z M 8.375 -5.5625 "/></g></g></g><g clip-path="url(#2108b6ac07)"><g fill="#00875f" fill-opacity="1"><g transform="translate(114.989407, 39.394488)"><g><path d="M 4.90625 0 L 1.265625 0 L 1.265625 -10.53125 L 4.90625 -10.53125 Z M 1.453125 -11.53125 L 1.453125 -11.796875 C 2.410156 -12.816406 3.015625 -13.476562 3.265625 -13.78125 C 3.523438 -14.082031 3.738281 -14.347656 3.90625 -14.578125 L 7.890625 -14.578125 L 7.890625 -14.390625 C 7.390625 -13.992188 6.703125 -13.488281 5.828125 -12.875 C 4.960938 -12.257812 4.3125 -11.8125 3.875 -11.53125 Z M 1.453125 -11.53125 "/></g></g></g></g></svg>