<svg xmlns="http://www.w3.org/2000/svg" xmlns:xlink="http://www.w3.org/1999/xlink" width="500" zoomAndPan="magnify" viewBox="0 0 375 374.999991" height="500" preserveAspectRatio="xMidYMid meet" version="1.0"><defs><clipPath id="cd0aa76343"><path d="M 43 6.214844 L 325.972656 6.214844 L 325.972656 359 L 43 359 Z M 43 6.214844 " clip-rule="nonzero"/></clipPath></defs><g clip-path="url(#cd0aa76343)"><path fill="#3747d6" d="M 184.222656 41.4375 C 126.515625 41.4375 78.4375 90.480469 78.4375 152.613281 C 78.4375 201.453125 105.792969 244.371094 135.4375 276.277344 C 150.0625 292.023438 164.738281 304.535156 175.765625 313.105469 C 178.925781 315.5625 181.773438 317.6875 184.222656 319.460938 C 186.667969 317.6875 189.515625 315.5625 192.675781 313.105469 C 203.703125 304.535156 218.378906 292.023438 233.003906 276.277344 C 262.648438 244.371094 290.007812 201.453125 290.007812 152.613281 C 290.007812 90.480469 241.925781 41.4375 184.222656 41.4375 Z M 184.222656 340.839844 C 174.839844 355.753906 174.835938 355.75 174.828125 355.746094 L 174.78125 355.714844 L 174.675781 355.648438 L 174.332031 355.429688 C 174.046875 355.246094 173.644531 354.988281 173.140625 354.652344 C 172.125 353.988281 170.6875 353.023438 168.878906 351.773438 C 165.269531 349.273438 160.179688 345.625 154.109375 340.902344 C 141.996094 331.488281 125.816406 317.710938 109.589844 300.238281 C 77.523438 265.722656 43.175781 214.527344 43.175781 152.613281 C 43.175781 72.492188 105.605469 6.214844 184.222656 6.214844 C 262.835938 6.214844 325.269531 72.492188 325.269531 152.613281 C 325.269531 214.527344 290.917969 265.722656 258.851562 300.238281 C 242.625 317.710938 226.445312 331.488281 214.332031 340.902344 C 208.261719 345.625 203.175781 349.273438 199.5625 351.773438 C 197.757812 353.023438 196.316406 353.988281 195.300781 354.652344 C 194.796875 354.988281 194.394531 355.246094 194.109375 355.429688 L 193.769531 355.648438 L 193.664062 355.714844 L 193.628906 355.738281 C 193.621094 355.742188 193.601562 355.753906 184.222656 340.839844 Z M 184.222656 340.839844 L 193.601562 355.753906 C 187.867188 359.351562 180.566406 359.34375 174.828125 355.746094 Z M 184.222656 340.839844 " fill-opacity="1" fill-rule="evenodd"/></g><path fill="#9545ed" d="M 177.671875 60.308594 C 181.875 58.628906 186.566406 58.628906 190.769531 60.308594 L 234.847656 77.921875 C 241.539062 80.597656 245.929688 87.070312 245.929688 94.273438 L 245.929688 158.9375 C 245.929688 172.949219 240.355469 186.390625 230.4375 196.296875 L 196.6875 230.011719 C 189.804688 236.886719 178.640625 236.886719 171.753906 230.011719 L 138.003906 196.296875 C 128.085938 186.390625 122.511719 172.949219 122.511719 158.9375 L 122.511719 94.273438 C 122.511719 87.070312 126.902344 80.597656 133.597656 77.921875 Z M 157.773438 106.199219 L 157.773438 158.9375 C 157.773438 163.609375 159.632812 168.085938 162.9375 171.390625 L 184.222656 192.652344 L 205.503906 171.390625 C 208.808594 168.085938 210.667969 163.609375 210.667969 158.9375 L 210.667969 106.199219 L 184.222656 95.628906 Z M 157.773438 106.199219 " fill-opacity="1" fill-rule="evenodd"/></svg>